# xmcd
#
# Track frame offsets:
#  150
#  15833
#  31466
#  51830
#  73280
#  89745
#  111293
#  128389
#  142588
#  161286
#
# Disc length: 2415 seconds
#
# Revision: 0
# Processed by: cddbd v1.5.1PL2 Copyright (c) Steve Scherf et al.
# Submitted via: Collectorz.com_Music_Collector 6.11
#
DISCID=79096d0a
DTITLE=Grapeland - Reality Show
DYEAR=2005
DGENRE=Country Blues - Folk-Rock
TTITLE0=Reality Show
TTITLE1=Pretty Ones
TTITLE2=Hail To The Show
TTITLE3=Heaven Is All
TTITLE4=Phobic Phil
TTITLE5=Remind Me
TTITLE6=Shade In Me
TTITLE7=Bric-A-Brac
TTITLE8=Cavalry
TTITLE9=It´s Not You
EXTD=
EXTT0=
EXTT1=
EXTT2=
EXTT3=
EXTT4=
EXTT5=
EXTT6=
EXTT7=
EXTT8=
EXTT9=
PLAYORDER=
